<svg width="78" height="78" viewBox="0 0 78 78" fill="none" xmlns="http://www.w3.org/2000/svg">
            <path d="M34.7125 0.102333C32.2234 0.372246 29.3594 0.987053 26.9003 1.76681C24.3812 2.56156 20.4976 4.30101 19.1631 5.23072C18.9532 5.38067 18.7283 5.50063 18.6683 5.50063C18.4884 5.50063 15.5494 7.55499 14.3199 8.55967C12.6854 9.86426 9.97142 12.5934 8.56192 14.3478C3.01392 21.2457 0 29.793 0 38.6402C0 45.688 1.88932 52.5108 5.53301 58.5839C8.21705 63.0675 12.4155 67.5361 16.749 70.5052C22.207 74.269 28.6097 76.5782 35.2673 77.1931C37.7864 77.433 42.3148 77.283 44.609 76.8931C51.7914 75.6635 58.299 72.7395 63.4122 68.4208C70.8345 62.1678 75.4679 53.9654 77.0123 44.3384C77.4322 41.7442 77.4022 35.0863 76.9523 32.5671C75.9327 26.704 74.0734 21.9804 70.9395 17.197C67.2658 11.6037 61.6278 6.68526 55.51 3.76118C52.0613 2.0967 48.7325 1.06203 44.8189 0.387245C42.7196 0.0423508 36.8568 -0.122597 34.7125 0.102333ZM44.474 2.33663C50.5618 3.35631 55.8249 5.59061 60.7282 9.23446C62.8274 10.794 66.4111 14.3329 67.8656 16.2972C69.1551 18.0367 70.0248 19.2663 70.0248 19.3713C70.0248 19.4163 70.2048 19.7312 70.4297 20.091C71.4493 21.7105 72.9788 25.1444 73.7435 27.5437C75.8577 34.2016 75.9927 41.6093 74.0884 48.5671C73.2637 51.6111 71.6742 55.225 69.9499 58.0141C68.5853 60.2184 66.0513 63.3074 63.967 65.2868C59.8585 69.2156 54.6553 72.2146 49.1073 73.8491C45.2987 74.9737 43.0945 75.2887 38.7611 75.2887C34.2327 75.2887 31.1288 74.8088 27.0653 73.4892C21.8771 71.7948 16.0742 68.1659 12.3556 64.2671C9.38663 61.1631 6.71759 57.2043 5.11316 53.5305C0.299892 42.539 1.07961 29.8979 7.19741 19.7461C9.95642 15.1576 13.96 10.9589 18.4584 7.97485C21.1124 6.19041 25.2059 4.27102 28.1149 3.43128C30.2441 2.80148 33.6779 2.15668 35.6122 1.99174C37.5015 1.84178 42.7046 2.05172 44.474 2.33663Z" fill="#054663"></path>
            <path d="M37.1011 7.25398C37.161 8.70852 37.221 9.92314 37.236 9.95313C37.266 9.96813 38.0007 9.93814 38.8854 9.89315L40.4898 9.80318V9.36831V8.94845H39.3652H38.2406V8.22867C38.2406 7.8388 38.1957 6.8641 38.1357 6.05436L38.0457 4.59982H37.5209H36.9961L37.1011 7.25398Z" fill="#054663"></path><path d="M43.5276 5.07029C42.8228 5.28022 42.0281 6.13495 41.8182 6.88472C41.4283 8.35425 41.9831 9.65884 43.2427 10.2437C45.207 11.1584 47.1713 10.2137 47.4562 8.18931C47.6361 6.9447 47.0513 5.80506 45.9417 5.22024C45.4619 4.98032 44.0824 4.89035 43.5276 5.07029ZM45.5069 6.19493C46.0167 6.43486 46.4815 7.16963 46.4815 7.70946C46.4815 7.85941 46.3465 8.24929 46.1966 8.59418C45.6718 9.76381 44.3073 10.0037 43.3476 9.11901C42.9278 8.72914 42.8828 8.59418 42.8828 7.82942C42.8828 7.06466 42.9278 6.9297 43.3926 6.46485C43.9774 5.88003 44.6672 5.79006 45.5069 6.19493Z" fill="#054663"></path>
            <path d="M31.1017 5.33224C30.7568 5.4822 30.2919 5.87207 30.052 6.18697C29.6622 6.68182 29.6172 6.86176 29.6172 7.83645C29.6322 9.06607 29.9471 9.68087 30.8617 10.2807C31.9863 11.0155 34.0106 10.6256 34.8353 9.51593C35.78 8.25632 35.4051 6.30694 34.0556 5.39222C33.3958 4.94237 32.0013 4.92737 31.1017 5.33224ZM33.2159 6.15698C33.8457 6.4269 34.1905 7.0717 34.1905 7.95642C34.1905 8.49625 34.1006 8.73617 33.7557 9.12605C33.3508 9.57591 33.2309 9.62089 32.4662 9.62089C31.7014 9.62089 31.5815 9.57591 31.1766 9.12605C30.8168 8.72118 30.7418 8.51124 30.7418 7.85145C30.7418 6.93674 31.0117 6.45689 31.7014 6.15698C32.3012 5.90206 32.5861 5.90206 33.2159 6.15698Z" fill="#054663"></path><path d="M25.3873 7.193C24.3677 7.61286 23.543 8.03273 23.543 8.1227C23.543 8.21268 23.6329 8.42261 23.7529 8.57256C23.9478 8.85747 23.9778 8.85747 24.5776 8.57256C24.9525 8.40761 25.2524 8.34763 25.3423 8.43761C25.4023 8.51258 25.7772 9.35232 26.167 10.297C26.5569 11.2417 26.9018 12.0965 26.9467 12.1864C27.0367 12.4114 27.8914 12.1114 27.8914 11.8565C27.8914 11.7666 27.5915 10.9868 27.2316 10.1471C26.8568 9.30733 26.5119 8.42261 26.4669 8.19768C26.3769 7.8078 26.4219 7.76282 27.0367 7.52289C27.6815 7.28297 27.6965 7.25298 27.5465 6.83311C27.4566 6.59319 27.3366 6.39825 27.2916 6.41324C27.2466 6.42824 26.3919 6.77313 25.3873 7.193Z" fill="#054663"></path><path d="M50.489 7.21333C49.7843 7.46825 49.5294 7.67818 49.0645 8.42795C48.5097 9.29767 48.5097 10.6173 49.0645 11.457C49.5444 12.1918 50.684 12.7916 51.8385 12.9415C52.5733 13.0315 52.6333 13.0165 52.7682 12.6716C52.8432 12.4767 53.0831 11.9518 53.293 11.502C53.5029 11.0671 53.6829 10.6472 53.6829 10.5723C53.6829 10.4523 52.0185 9.65756 51.9585 9.73254C51.7336 10.0174 51.5686 10.5273 51.6886 10.5573C51.7786 10.5873 51.9585 10.7072 52.1084 10.8122C52.3634 10.9921 52.3634 11.0671 52.1834 11.487C52.0035 11.9368 51.9435 11.9668 51.4487 11.8769C50.7739 11.7569 50.1441 11.307 49.8593 10.7522C49.5594 10.1824 49.5744 9.91248 49.9342 9.17771C50.579 7.82814 52.1234 7.69318 53.0681 8.8778C53.353 9.25269 53.383 9.26768 53.8178 9.02776C54.0727 8.90779 54.2827 8.72785 54.2827 8.66787C54.2827 8.36796 52.9781 7.43826 52.2734 7.22832C51.3737 6.95841 51.2238 6.95841 50.489 7.21333Z" fill="#054663"></path><path d="M20.3452 9.89718C20.0603 10.0921 20.0453 9.88218 20.6151 13.601C20.75 14.4707 20.885 15.3255 20.93 15.5054L21.0199 15.8203L21.5147 15.5354C21.9796 15.2505 22.0096 15.2055 21.8746 14.7556C21.7996 14.5007 21.7397 14.2158 21.7397 14.1258C21.7397 13.9909 23.4191 12.8512 23.629 12.8512C23.674 12.8512 23.9289 13.0012 24.1688 13.1811C24.6186 13.496 24.6336 13.496 25.1284 13.2261C25.6832 12.9262 25.6383 12.7313 24.9485 12.3564C24.7536 12.2664 23.7789 11.6216 22.7893 10.9319C21.8146 10.2571 20.915 9.70224 20.795 9.70224C20.69 9.70224 20.4801 9.79221 20.3452 9.89718ZM22.1295 11.7116L22.8043 12.2364L22.2495 12.6113C21.9346 12.8213 21.6347 12.9562 21.5747 12.9262C21.5297 12.8812 21.4248 12.5963 21.3798 12.2964C21.3198 11.9815 21.2448 11.6066 21.1999 11.4567C21.0799 11.0668 21.3798 11.1418 22.1295 11.7116Z" fill="#054663"></path><path d="M56.0506 10.7047C55.6757 11.2745 55.016 12.2642 54.5961 12.924L53.8164 14.1236L54.1463 14.3785C54.3262 14.5285 54.5212 14.6484 54.5961 14.6484C54.6711 14.6484 55.3609 13.6587 56.1556 12.4591L57.5801 10.2848L57.2502 9.9999C57.0552 9.83495 56.8603 9.71499 56.8153 9.7C56.7703 9.7 56.4255 10.1499 56.0506 10.7047Z" fill="#054663"></path><path d="M34.2617 12.698C27.5891 13.9426 21.8312 17.3916 18.0375 22.4C15.7134 25.459 14.5438 27.7083 13.4942 31.1422C12.6395 33.9163 12.5195 34.8011 12.5195 38.6399C12.5195 41.7289 12.5645 42.3587 12.8644 43.7383C14.004 49.0466 16.4631 53.5901 20.1968 57.264C21.9212 58.9735 22.401 59.3633 24.2153 60.563C27.1093 62.4823 30.3181 63.8019 33.8869 64.5367C35.5063 64.8666 41.5041 64.9116 43.0336 64.6117C44.8329 64.2368 46.4074 63.8319 47.2321 63.517C47.6819 63.3521 48.2217 63.1571 48.4316 63.0972C49.0314 62.9022 51.4006 61.6876 52.5551 60.9828C57.7133 57.8188 61.6419 52.8554 63.6362 47.0222C65.6005 41.219 65.4655 34.936 63.2313 29.1179C60.4573 21.8901 54.4745 16.1769 47.0821 13.7027C44.2031 12.728 42.7637 12.5031 39.06 12.4581C36.331 12.4131 35.5063 12.4581 34.2617 12.698ZM42.7637 14.6474C47.6069 15.4722 51.8504 17.5865 55.3591 20.9154C59.4227 24.7992 61.9568 29.5677 62.7515 34.921C63.0364 36.7804 63.0364 40.3643 62.7515 42.3137C62.0167 47.4571 59.4377 52.4505 55.614 56.1094C54.0246 57.6239 53.8447 57.7588 52.2253 58.8385C49.6312 60.5779 46.6773 61.8226 43.5584 62.4823C41.3392 62.9472 37.5905 63.0522 35.2814 62.7073C25.4599 61.2377 17.6327 54.2499 15.1436 44.7279C13.989 40.3193 14.1689 35.146 15.6384 30.8273C16.0283 29.6877 17.0629 27.4084 17.5427 26.6286C17.7826 26.2238 17.9926 25.8489 17.9926 25.8039C17.9926 25.7589 18.4724 25.0691 19.0722 24.2744C20.3317 22.5649 21.8762 20.9154 23.2407 19.8508C23.7805 19.4309 24.2453 19.041 24.2903 18.996C24.3353 18.9511 24.8451 18.5912 25.4149 18.2163C28.2189 16.3869 31.5627 15.1273 35.0114 14.5724C36.9458 14.2575 40.7694 14.3025 42.7637 14.6474Z" fill="#054663"></path><path d="M37.7258 19.2701C37.3209 20.6497 35.9714 23.2889 34.8168 24.9983C33.0025 27.6525 32.9875 27.6675 32.9875 25.7481V24.3985H30.7383H28.4891V26.1979V27.9974H26.6897H24.8904V30.3216V32.6459H26.6897C27.8293 32.6459 28.4891 32.7059 28.4891 32.7959C28.4891 32.8858 28.1592 33.4407 27.7544 34.0405C26.1649 36.3647 25.1003 38.809 24.7255 40.9983C24.4855 42.3928 24.6355 45.4969 25.0103 46.7415C26 49.9954 27.6644 52.5296 29.9886 54.3141C31.1881 55.2288 32.2827 55.8136 33.8872 56.3684C35.2817 56.8483 35.3716 56.8483 37.9357 56.8633C40.8297 56.8633 41.5494 56.7283 43.5737 55.8136C46.7825 54.3591 49.3616 51.495 50.6661 47.9411C51.3109 46.1866 51.4758 45.212 51.4758 43.2176C51.4908 40.9533 51.2359 39.5887 50.4112 37.5344L49.8864 36.1998L51.041 33.8605C51.6858 32.5709 52.1356 31.5812 52.0606 31.6712C51.9857 31.7462 51.2959 32.6609 50.5462 33.6956C49.7964 34.7303 49.1367 35.63 49.0617 35.7199C49.0017 35.7949 48.342 36.6796 47.6072 37.6693C46.8575 38.659 46.1677 39.5737 46.0778 39.6937C45.9728 39.8137 44.1435 42.2129 42.0142 45.017C39.4052 48.4659 38.0557 50.1304 37.8457 50.1604C37.5908 50.1904 37.2759 49.8605 36.3763 48.6609C35.7315 47.8061 35.0717 46.9214 34.8918 46.6815C34.7119 46.4416 34.0971 45.6318 33.5423 44.8821C32.9875 44.1323 32.4477 43.4125 32.3427 43.2926C31.8779 42.7077 30.0036 40.1735 29.7636 39.7987C29.6137 39.5737 29.5237 39.3488 29.5687 39.3188C29.5987 39.2888 30.5134 39.9486 31.593 40.7883C35.5815 43.9074 37.6358 45.4669 37.7558 45.4669C37.8307 45.4669 38.8804 44.3872 40.1099 43.0676C41.3395 41.748 43.1838 39.7537 44.2184 38.644C47.5622 35.0452 48.282 34.2504 48.282 34.1154C48.282 33.7706 46.0478 30.8765 44.0835 28.6722C41.3845 25.6431 39.1503 21.9393 38.2956 19.1052C38.1756 18.7153 38.0557 18.4004 38.0407 18.4004C38.0107 18.4004 37.8757 18.7903 37.7258 19.2701ZM31.638 27.6225V29.4969H33.5273H35.4016L35.3566 30.2767L35.3116 31.0714L33.4823 31.1164L31.638 31.1614V33.0208V34.8952H30.8283C30.2285 34.8952 30.0036 34.8352 29.9286 34.6553C29.8836 34.5203 29.8386 33.6806 29.8386 32.7809V31.1464H28.0393H26.2399V30.3216V29.4969H28.0393H29.8386V27.8624C29.8386 26.9627 29.8836 26.123 29.9286 25.988C30.0036 25.8081 30.2285 25.7481 30.8283 25.7481H31.638V27.6225Z" fill="#054663"></path><path d="M58.7025 12.6485C57.6528 13.1884 56.8431 14.358 56.8281 15.2877C56.8281 16.2324 57.5779 17.342 58.5825 17.8519C59.0023 18.0618 59.977 18.1968 59.977 18.0318C59.977 18.0168 59.902 17.7919 59.827 17.537C59.7071 17.2071 59.5272 17.0571 59.1073 16.9522C58.3726 16.7722 57.8178 15.9775 57.9377 15.2727C58.0427 14.6129 58.6425 13.8331 59.2123 13.5932C60.0969 13.2333 61.1166 13.7132 61.4015 14.5979C61.4765 14.8678 61.6114 14.9428 62.0163 14.9428C62.5711 14.9428 62.601 14.8678 62.3611 14.238C61.8363 12.8435 59.917 12.0037 58.7025 12.6485Z" fill="#054663"></path><path d="M15.8221 13.2929L15.2373 13.8928L16.047 15.5422C16.4819 16.4569 16.8118 17.2367 16.7668 17.2667C16.6918 17.3417 15.7621 16.9668 14.1277 16.187L13.318 15.8121L12.7332 16.382L12.1484 16.9518L13.9778 18.7962C14.9974 19.8159 15.8971 20.6406 15.9871 20.6406C16.077 20.6406 16.272 20.5057 16.4219 20.3407C16.7068 20.0258 16.6918 20.0108 15.2973 18.6163C14.5176 17.8365 13.9178 17.1767 13.9628 17.1317C13.9928 17.0867 14.8625 17.4616 15.8821 17.9565C16.9017 18.4363 17.7714 18.8412 17.8164 18.8412C17.8614 18.8412 18.0113 18.7362 18.1613 18.6013C18.4012 18.3913 18.3562 18.2564 17.4415 16.427C16.9017 15.3473 16.4819 14.4476 16.5269 14.4176C16.5868 14.3576 16.9017 14.6425 18.6411 16.277L19.4958 17.0867L19.8707 16.7419C20.3205 16.322 20.4405 16.4869 18.1463 14.3426L16.3919 12.7081L15.8221 13.2929Z" fill="#054663"></path><path d="M65.3051 17.5997C65.1401 17.6297 64.6153 17.7496 64.1505 17.8696C63.6707 17.9896 62.8609 18.1995 62.3511 18.3344C61.8263 18.4544 61.0466 18.6643 60.6118 18.7843L59.832 19.0092L60.2219 19.5191C60.5368 19.9389 60.6567 20.0139 60.8817 19.894C61.5114 19.5641 61.8713 19.714 62.4561 20.5687L63.0259 21.3935L62.771 21.9783C62.5011 22.5481 62.5011 22.5631 62.8459 23.028L63.1908 23.5078L63.4607 23.1629C63.6107 22.968 63.7306 22.773 63.7306 22.7281C63.7306 22.6681 64.2704 21.6784 64.9302 20.4938L66.1448 18.3644L65.8749 17.9596C65.6949 17.7046 65.5 17.5697 65.3051 17.5997ZM64.4804 18.9193C64.4804 19.0542 63.8506 20.1939 63.7306 20.2688C63.6107 20.3438 62.741 19.4891 62.8459 19.3841C62.9209 19.3241 64.2105 18.8743 64.3754 18.8593C64.4354 18.8443 64.4804 18.8743 64.4804 18.9193Z" fill="#054663"></path><path d="M10.4061 19.8662C10.2261 20.0012 9.76131 20.616 9.35646 21.2308L8.63672 22.3404L8.9666 22.5953C9.49141 23.0302 13.0002 25.1445 13.1651 25.1445C13.345 25.1445 13.6449 24.6797 13.6449 24.4098C13.6449 24.3348 13.2701 24.0349 12.8202 23.765C11.9805 23.2701 11.8905 23.1352 12.1305 22.7603C12.2354 22.5953 12.5353 22.5803 13.525 22.6553L14.7845 22.7603L14.9944 22.3404C15.1144 22.1155 15.2343 21.8756 15.2643 21.8156C15.2943 21.7556 14.7545 21.6956 14.0648 21.6656C12.9252 21.6206 12.8202 21.5907 12.8502 21.3207C12.9702 20.391 12.2654 19.5963 11.3208 19.5963C10.9759 19.5963 10.586 19.7162 10.4061 19.8662ZM11.7556 20.9758C11.8756 21.1708 11.8306 21.3957 11.5757 21.9205C11.3957 22.2954 11.1858 22.5953 11.1108 22.5953C10.8859 22.5953 10.0462 22.0855 10.0462 21.9505C10.0462 21.7706 10.3461 21.2158 10.616 20.9009C10.9009 20.571 11.5307 20.616 11.7556 20.9758Z" fill="#054663"></path><path d="M66.0963 23.2092L63.7422 24.4238L64.4769 25.9084C65.2117 27.3479 65.2416 27.3779 65.6015 27.213C65.8114 27.123 65.9764 26.988 65.9764 26.9131C65.9764 26.8381 65.7665 26.3732 65.5116 25.8784C65.2566 25.3685 65.0767 24.9487 65.1067 24.9187C65.1367 24.9037 65.9914 24.4538 67.026 23.944C68.0606 23.4342 68.9153 22.9843 68.9453 22.9693C68.9903 22.9243 68.5405 21.9946 68.4805 22.0096C68.4655 22.0096 67.3859 22.5494 66.0963 23.2092Z" fill="#054663"></path><path d="M7.18546 25.5669C6.5257 27.2914 6.30078 27.9212 6.30078 28.0111C6.30078 28.1161 6.67565 28.2661 9.34469 29.2857C10.3193 29.6606 11.174 29.9305 11.219 29.8705C11.279 29.8106 11.6089 29.0458 11.9388 28.1761L12.5685 26.5716L12.1937 26.3767C11.9837 26.2567 11.7588 26.2267 11.6988 26.3017C11.6389 26.3617 11.3989 26.9165 11.159 27.5013C10.9341 28.1011 10.6642 28.596 10.5593 28.596C10.2744 28.596 9.5996 28.2661 9.5996 28.1311C9.5996 28.0561 9.76454 27.5463 9.97446 27.0065C10.1844 26.4516 10.3343 25.9868 10.3193 25.9718C9.56961 25.5819 9.50963 25.5969 9.16475 26.4066C8.99981 26.8265 8.84986 27.2464 8.84986 27.3214C8.83487 27.7712 8.59496 27.8762 8.05515 27.6363L7.50035 27.4113L7.86022 26.4666C8.07015 25.9418 8.26508 25.417 8.31006 25.297C8.38503 25.132 8.26508 25.0121 7.96518 24.8921C7.51534 24.7272 7.51534 24.7272 7.18546 25.5669Z" fill="#054663"></path><path d="M68.0725 27.7182C66.798 28.138 65.7184 28.4979 65.6884 28.5279C65.6734 28.5429 65.8533 29.2477 66.1232 30.0724C66.603 31.6019 66.768 31.7969 67.3078 31.452C67.4727 31.347 67.4577 31.1821 67.2628 30.4923C67.1279 30.0274 66.9779 29.5626 66.9329 29.4426C66.8879 29.3077 67.2928 29.1127 68.4024 28.7528C71.1614 27.8831 71.1164 27.9131 70.8465 27.1183C70.7565 26.8634 70.6666 26.8784 68.0725 27.7182Z" fill="#054663"></path><path d="M70.518 31.8014C69.1835 33.0011 69.1085 33.046 68.2538 33.136C66.8743 33.286 66.8294 33.316 67.0993 34.2307C67.1292 34.3506 67.4741 34.3356 68.2988 34.2157L69.4534 34.0357L71.0578 34.7405C72.6473 35.4603 72.6473 35.4603 72.6922 35.1154C72.7672 34.5156 72.4823 34.2007 71.4927 33.8408C70.9679 33.6609 70.488 33.4509 70.4281 33.3909C70.3681 33.331 70.638 33.031 71.0278 32.7012C72.1974 31.7565 72.1824 31.7864 72.0325 31.1416L71.8975 30.5418L70.518 31.8014Z" fill="#054663"></path><path d="M6.83742 30.8421C5.81778 31.157 5.06805 32.4466 4.85813 34.261C4.75316 35.2657 4.72318 35.2357 5.99772 35.4157C6.37258 35.4607 7.18229 35.5956 7.79707 35.7156C8.41185 35.8206 9.16158 35.9555 9.46147 36.0155L10.0163 36.1055L10.1812 35.1458C10.4061 33.8712 10.3911 32.8815 10.1362 32.2967C9.61142 31.0671 8.18693 30.4373 6.83742 30.8421ZM8.8167 32.2667C9.32652 32.7015 9.46147 33.1664 9.34152 34.1861L9.25155 34.9208L8.71174 34.8159C8.41185 34.7559 7.67711 34.6209 7.07733 34.516C6.47754 34.411 5.93774 34.291 5.89276 34.2311C5.71282 34.0661 6.19265 32.7015 6.56751 32.2967C7.10732 31.7418 8.17194 31.7119 8.8167 32.2667Z" fill="#054663"></path><path d="M9.2376 42.0877C9.49251 46.7062 11.6068 52.2995 14.5307 56.1083C15.7753 57.7278 18.5942 60.6518 18.5942 60.3219C18.5942 60.277 18.1444 59.7521 17.6046 59.1523C14.4707 55.7034 12.2815 51.9846 10.842 47.7109C10.0773 45.4616 9.82239 44.382 9.31258 41.4879C9.17763 40.7681 9.17763 40.8581 9.2376 42.0877Z" fill="#054663"></path><path d="M68.0747 41.3107C68.0747 41.8955 67.3999 45.1045 66.9651 46.5291C66.4253 48.3585 65.9005 49.6181 64.8208 51.8224C63.4563 54.5816 62.0918 56.5759 59.8276 59.1851C59.0779 60.0398 58.9879 60.1898 59.4528 59.7999C63.4713 56.381 66.7102 50.6528 67.7898 45.0296C68.1047 43.4101 68.3296 40.8909 68.1646 40.8909C68.1197 40.8909 68.0747 41.0708 68.0747 41.3107Z" fill="#054663"></path><path d="M71.9046 41.8236C71.7846 42.9333 71.3198 45.1976 70.93 46.6671C69.4005 52.3353 66.3116 57.8536 62.1281 62.3372L60.8086 63.7617L62.0681 62.6371C66.8214 58.4084 70.3152 52.1854 71.5897 45.6924C71.8596 44.3428 72.2045 41.0589 72.0845 40.9539C72.0396 40.9089 71.9646 41.2988 71.9046 41.8236Z" fill="#054663"></path><path d="M5.41452 42.2061C5.39952 43.0158 5.75939 45.4151 6.14925 47.1246C7.43879 52.6578 10.7526 58.401 14.8911 62.2548C15.6408 62.9596 16.2856 63.4994 16.3156 63.4544C16.3606 63.4094 15.9107 62.8996 15.326 62.2998C10.3327 57.1414 7.03393 50.5585 5.69941 43.0608C5.50448 41.9362 5.42951 41.7263 5.41452 42.2061Z" fill="#054663"></path><path d="M22.7334 63.2654C22.4185 63.7152 22.4335 63.7752 22.9133 63.9702C23.1382 64.0751 23.4381 64.2401 23.5881 64.345C23.873 64.57 23.888 64.54 22.0586 67.794C21.8787 68.1089 21.7437 68.3788 21.7737 68.3938C21.8037 68.4088 21.9986 68.5437 22.2236 68.6787L22.6284 68.9336L23.1082 68.0639C23.3631 67.599 23.858 66.7293 24.1878 66.1295L24.7876 65.0498L25.4924 65.4097L26.1971 65.7696L26.3921 65.3947C26.497 65.1998 26.557 65.0048 26.527 64.9748C26.467 64.9149 25.2525 64.2101 23.813 63.4003L22.9733 62.9205L22.7334 63.2654Z" fill="#054663"></path><path d="M16.795 63.9064C16.9899 64.1163 17.1848 64.2812 17.2148 64.2812C17.2598 64.2812 17.1398 64.1163 16.9449 63.9064C16.75 63.6964 16.5551 63.5315 16.5251 63.5315C16.4801 63.5315 16.6 63.6964 16.795 63.9064Z" fill="#054663"></path><path d="M52.1965 64.224C51.4468 64.6139 50.832 64.9588 50.832 65.0187C50.832 65.0637 51.0719 65.4986 51.3568 65.9784C51.6417 66.4583 51.8817 66.8781 51.8817 66.9081C51.8817 66.9531 52.1666 67.463 52.5264 68.0628C52.8863 68.6626 53.2162 69.2774 53.2762 69.4273C53.3661 69.6823 53.4561 69.6523 54.3108 69.1724C55.7053 68.4077 56.3201 67.8378 56.62 67.0431C56.8449 66.4433 56.8599 66.2483 56.6949 65.6635C56.455 64.7638 56.0352 64.194 55.3304 63.8341C54.4007 63.3543 53.726 63.4442 52.1965 64.224ZM55.0455 65.0037C55.4204 65.3486 55.5403 65.5736 55.5853 66.1734C55.6603 66.8632 55.6303 66.9681 55.1655 67.418C54.4907 68.1078 53.9809 68.2877 53.711 67.9278C53.3661 67.448 52.3315 65.5286 52.3315 65.3486C52.3315 65.1087 53.5011 64.6139 54.0859 64.5989C54.4157 64.5839 54.7306 64.7188 55.0455 65.0037Z" fill="#054663"></path><path d="M28.1294 66.4426C27.3647 68.7968 26.8398 70.5213 26.8398 70.6712C26.8398 70.7612 27.0948 70.9111 27.4096 71.0011C27.7095 71.1061 28.5042 71.346 29.149 71.5559C29.8088 71.7659 30.3636 71.9008 30.3936 71.8708C30.4236 71.8408 30.4685 71.6309 30.4835 71.406C30.5135 71.0311 30.4385 70.9711 29.4939 70.6562C28.9241 70.4613 28.3693 70.2663 28.2643 70.2214C28.0994 70.1614 28.0994 70.0414 28.2343 69.6066C28.3693 69.1267 28.4443 69.0667 28.7741 69.1267C29.284 69.2317 30.1537 69.4716 30.4535 69.5916C30.6185 69.6665 30.7384 69.5766 30.8734 69.2917C30.9634 69.0667 31.0083 68.8568 30.9634 68.7968C30.9034 68.7518 30.4236 68.5719 29.8688 68.3919C28.9091 68.107 28.8641 68.077 28.9091 67.6422C28.9391 67.4022 29.0141 67.1473 29.089 67.0724C29.149 67.0124 29.7188 67.1023 30.3486 67.2823C30.9784 67.4772 31.5182 67.5972 31.5482 67.5672C31.5931 67.5372 31.6531 67.3423 31.7131 67.1323C31.8031 66.7575 31.7581 66.7275 30.0937 66.2176L28.3843 65.6928L28.1294 66.4426Z" fill="#054663"></path><path d="M47.9843 66.0066C47.6994 66.1115 47.0246 66.3215 46.4848 66.4714C45.945 66.6064 45.4502 66.7713 45.3902 66.8313C45.2703 66.9363 45.4502 67.701 46.095 69.7554C46.2899 70.4152 46.4998 71.1799 46.5598 71.4348C46.6198 71.7048 46.7248 71.9297 46.8147 71.9297C46.9797 71.9297 50.1285 71.015 50.2035 70.94C50.2335 70.925 50.2185 70.7001 50.1585 70.4602L50.0686 70.0103L48.794 70.4002C48.1043 70.6101 47.5045 70.7451 47.4595 70.7001C47.4145 70.6551 47.3695 70.3702 47.3395 70.0703L47.3095 69.5154L48.2842 69.2005C48.824 69.0206 49.2738 68.8707 49.3038 68.8407C49.3338 68.8257 49.3038 68.6307 49.2438 68.4058C49.1389 67.9559 48.959 67.9559 47.6394 68.3758L46.9047 68.6157L46.6948 68.0759C46.5598 67.791 46.4998 67.5211 46.5298 67.4761C46.5748 67.4461 47.1146 67.2812 47.7594 67.1012C48.794 66.8163 48.899 66.7563 48.824 66.4714C48.779 66.3065 48.734 66.0665 48.734 65.9616C48.734 65.7516 48.6741 65.7516 47.9843 66.0066Z" fill="#054663"></path><path d="M34.6386 67.4448C33.8739 67.7147 33.484 68.9743 33.9488 69.6041C34.0688 69.7691 34.5486 70.099 35.0284 70.3539C35.7332 70.7138 35.9281 70.8787 35.9581 71.2086C36.0481 71.9434 34.9835 72.1383 34.2937 71.5235C34.0538 71.2986 34.0088 71.3136 33.6639 71.6285C33.454 71.8234 33.2891 72.0334 33.2891 72.0934C33.2891 72.3033 34.5936 72.8281 35.1334 72.8281C35.8831 72.8281 36.6778 72.4832 36.9028 72.0634C37.1877 71.5235 37.1427 70.6538 36.8278 70.2939C36.6628 70.114 36.183 69.8141 35.7332 69.6191C34.8185 69.1993 34.6386 68.8994 35.0134 68.4795C35.3283 68.1346 35.7632 68.1046 36.318 68.3895C36.6778 68.5845 36.7378 68.5695 37.0227 68.2696C37.4426 67.8197 37.4276 67.7447 36.8128 67.4898C36.243 67.2499 35.2084 67.2349 34.6386 67.4448Z" fill="#054663"></path><path d="M40.5351 67.4627L39.1406 67.6126V68.0625V68.5123L39.9503 68.4524C40.76 68.3924 40.76 68.3924 40.85 68.8422C40.88 69.0972 40.97 70.0269 41.0299 70.8966C41.0749 71.7813 41.1799 72.5761 41.2399 72.681C41.3148 72.801 41.5098 72.831 41.8247 72.756C42.2895 72.651 42.3045 72.636 42.2145 72.0362C42.0796 71.0315 41.8996 68.3174 41.9746 68.2424C42.0046 68.2124 42.3195 68.1824 42.6644 68.1824C43.4141 68.1824 43.4741 68.1375 43.3691 67.6576C43.3091 67.3127 43.2342 67.2827 42.6044 67.2977C42.2295 67.3127 41.2849 67.3877 40.5351 67.4627Z" fill="#054663"></path>
        </svg>